<svg xmlns="http://www.w3.org/2000/svg" version="1.1" xmlns:xlink="http://www.w3.org/1999/xlink" xmlns:svgjs="http://svgjs.dev/svgjs" width="128" height="128" viewBox="0 0 128 128"><g transform="matrix(0.8046875,0,0,0.8046875,12.760752631578946,27.071369672077537)"><svg viewBox="0 0 95 69" data-background-color="#003366" preserveAspectRatio="xMidYMid meet" height="92" width="128" xmlns="http://www.w3.org/2000/svg" xmlns:xlink="http://www.w3.org/1999/xlink"><g id="tight-bounds" transform="matrix(1,0,0,1,-0.24049999999999727,-0.08108241281013306)"><svg viewBox="0 0 95.481 69.16216482562025" height="69.16216482562025" width="95.481"><g><svg viewBox="0 0 95.481 69.16216482562025" height="69.16216482562025" width="95.481"><g><svg viewBox="0 0 95.481 69.16216482562025" height="69.16216482562025" width="95.481"><g id="textblocktransform"><svg viewBox="0 0 95.481 69.16216482562025" height="69.16216482562025" width="95.481" id="textblock"><g><svg viewBox="0 0 95.481 69.16216482562025" height="69.16216482562025" width="95.481"><g><svg viewBox="0 0 95.481 69.16216482562025" height="69.16216482562025" width="95.481"><g><svg xmlns="http://www.w3.org/2000/svg" xmlns:xlink="http://www.w3.org/1999/xlink" version="1.1" x="0" y="0" viewBox="5.098 17.475 89.804 65.05000000000001" enable-background="new 0 0 100 100" xml:space="preserve" height="69.16216482562025" width="95.481" class="icon-icon-0" data-fill-palette-color="accent" id="icon-0"><polygon points="5.098,27.099 30.501,27.095 33.591,21.943 45.633,20.993 59.525,22.97 76.797,17.475 72.502,25.617 65.33,31.902   62.069,33.369 65.506,33.079 76.327,36.885 89.841,50.379 81.498,51.628 93.911,63.783 82.248,63.796 94.902,79.767 77.187,72.262   76.313,82.525 64.676,71.986 59.73,80.64 50.8,69.719 47.483,76.002 31.732,57.659 31.054,59.802 23.837,57.178 23.089,59.253   18.232,56.77 16.421,56.637 12.127,52.514 15.562,49.423 16.076,45.646 17.231,47.43 28.567,48.979 35.337,50.429 29.447,44.822   23.697,42.52 15.829,40.862 14.701,44.444 12.104,40.008 8.383,38.575 6.8,33.109 " fill="rgb(239 68 68)" data-fill-palette-color="accent"></polygon></svg></g></svg></g></svg></g></svg></g></svg></g></svg></g><defs></defs></svg><rect width="95.481" height="69.16216482562025" fill="none" stroke="none" visibility="hidden"></rect></g></svg></g></svg>